<?xml version="1.0" encoding="UTF-8"?>
<svg id="Layer_1" xmlns="http://www.w3.org/2000/svg" viewBox="0 0 1967 310">
  <defs>
    <style>
      .cls-1 {
        fill: #e31837;
      }
    </style>
  </defs>
  <g>
    <path class="cls-1" d="M420.03,136.67c26.6,0,48.3,21.28,48.3,48.71s-21.69,50.07-48.3,50.07-48.3-21.96-48.3-50.07,21.69-48.71,48.3-48.71ZM420.03,229.85c23.33,0,42.16-19.37,42.16-44.48s-18.83-43.11-42.16-43.11-42.16,18.69-42.16,43.11,18.83,44.48,42.16,44.48Z"/>
    <path class="cls-1" d="M482.65,228.35h12.96v-84.59h-12.96v-5.46h40.25c6.41,0,11.19.41,16.37,2.18,8.87,3.41,14.73,10.91,14.73,23.19,0,14.73-8.73,25.65-22.78,27.29v.27s1.36,1.09,2.73,3.41l18.01,30.56c1.64,2.73,3.27,3.14,6.96,3.14h2.59v5.46h-2.59c-8.32,0-9.41-1.09-13.1-7.23l-17.05-28.79c-2.87-4.91-4.78-6.28-11.32-6.28h-15.96v36.84h12.96v5.46h-31.79v-5.46ZM526.72,186.06c12.55,0,21.15-8.87,21.15-22.1,0-9.69-4.5-15.55-11.73-18.28-3.68-1.36-8.46-1.91-13.51-1.91h-21.15v42.29h25.24Z"/>
    <path class="cls-1" d="M573.92,228.35h12.96v-84.59h-12.96v-5.46h39.84c8.32,0,14.05.55,20.6,2.59,17.87,6,28.79,22.37,28.79,45.29s-11.73,39.97-31.24,45.57c-5.73,1.64-11.46,2.05-18.14,2.05h-39.84v-5.46ZM612.8,228.35c6.55,0,12.14-.55,17.6-2.18,16.23-4.91,26.6-19.1,26.6-40.11s-9.55-34.65-25.24-39.97c-6-2.05-11.73-2.32-18.96-2.32h-20.05v84.59h20.05Z"/>
    <path class="cls-1" d="M678.02,228.35h12.96v-84.59h-12.96v-5.46h65.9v17.74h-5.73v-12.28h-41.34v39.16h38.06v5.46h-38.06v39.97h44.07v-13.1h5.73v18.55h-68.62v-5.46Z"/>
    <path class="cls-1" d="M762.06,228.35h12.96v-84.59h-12.96v-5.46h40.25c6.41,0,11.19.41,16.37,2.18,8.87,3.41,14.73,10.91,14.73,23.19,0,14.73-8.73,25.65-22.78,27.29v.27s1.36,1.09,2.73,3.41l18.01,30.56c1.64,2.73,3.27,3.14,6.96,3.14h2.59v5.46h-2.59c-8.32,0-9.41-1.09-13.1-7.23l-17.05-28.79c-2.87-4.91-4.78-6.28-11.32-6.28h-15.96v36.84h12.96v5.46h-31.79v-5.46ZM806.12,186.06c12.55,0,21.15-8.87,21.15-22.1,0-9.69-4.5-15.55-11.73-18.28-3.68-1.36-8.46-1.91-13.51-1.91h-21.15v42.29h25.24Z"/>
    <path class="cls-1" d="M936.55,136.67c26.6,0,48.3,21.28,48.3,48.71s-21.69,50.07-48.3,50.07-48.3-21.96-48.3-50.07,21.69-48.71,48.3-48.71ZM936.55,229.85c23.33,0,42.16-19.37,42.16-44.48s-18.83-43.11-42.16-43.11-42.16,18.69-42.16,43.11,18.83,44.48,42.16,44.48Z"/>
    <path class="cls-1" d="M999.17,228.35h12.96v-84.59h-12.96v-5.46h62.48v18.42h-5.73v-12.96h-37.93v39.84h36.56v5.46h-36.56v39.29h13.64v5.46h-32.47v-5.46Z"/>
    <path class="cls-1" d="M1129.73,228.35h12.96v-84.59h-30.56v16.1h-5.73v-21.56h78.45v21.56h-5.73v-16.1h-30.56v84.59h12.96v5.46h-31.79v-5.46Z"/>
    <path class="cls-1" d="M1196.71,228.35h12.96v-84.59h-12.96v-5.46h31.79v5.46h-12.96v39.43h60.57v-39.43h-12.96v-5.46h31.79v5.46h-12.96v84.59h12.96v5.46h-31.79v-5.46h12.96v-39.7h-60.57v39.7h12.96v5.46h-31.79v-5.46Z"/>
    <path class="cls-1" d="M1309.4,228.35h12.96v-84.59h-12.96v-5.46h65.89v17.74h-5.73v-12.28h-41.34v39.16h38.06v5.46h-38.06v39.97h44.07v-13.1h5.73v18.55h-68.62v-5.46Z"/>
    <path class="cls-1" d="M1421.68,228.35h10.23l33.7-90.04h6.28l33.7,90.04h10.23v5.46h-28.1v-5.46h11.6l-10.37-27.56h-40.52l-10.23,27.56h11.6v5.46h-28.1v-5.46ZM1486.9,195.34l-16.64-44.61c-.96-2.46-1.36-5.18-1.36-5.18h-.27s-.41,2.73-1.36,5.18l-16.78,44.61h36.43Z"/>
    <path class="cls-1" d="M1524.41,228.35h12.96v-84.59h-12.96v-5.46h40.25c6.41,0,11.19.41,16.37,2.18,8.87,3.41,14.73,10.91,14.73,23.19,0,14.73-8.73,25.65-22.78,27.29v.27s1.36,1.09,2.73,3.41l18.01,30.56c1.64,2.73,3.27,3.14,6.96,3.14h2.59v5.46h-2.59c-8.32,0-9.41-1.09-13.1-7.23l-17.05-28.79c-2.87-4.91-4.78-6.28-11.32-6.28h-15.96v36.84h12.96v5.46h-31.79v-5.46ZM1568.48,186.06c12.55,0,21.15-8.87,21.15-22.1,0-9.69-4.5-15.55-11.73-18.28-3.68-1.36-8.46-1.91-13.51-1.91h-21.15v42.29h25.24Z"/>
    <path class="cls-1" d="M1615.68,228.35h12.96v-84.59h-12.96v-5.46h40.25c6.41,0,11.19.41,16.37,2.18,8.87,3.41,14.73,10.91,14.73,23.19,0,14.73-8.73,25.65-22.78,27.29v.27s1.36,1.09,2.73,3.41l18.01,30.56c1.64,2.73,3.27,3.14,6.96,3.14h2.59v5.46h-2.59c-8.32,0-9.41-1.09-13.1-7.23l-17.05-28.79c-2.86-4.91-4.77-6.28-11.32-6.28h-15.96v36.84h12.96v5.46h-31.79v-5.46ZM1659.75,186.06c12.55,0,21.15-8.87,21.15-22.1,0-9.69-4.5-15.55-11.73-18.28-3.68-1.36-8.46-1.91-13.51-1.91h-21.15v42.29h25.24Z"/>
    <path class="cls-1" d="M1755.11,136.67c26.6,0,48.3,21.28,48.3,48.71s-21.69,50.07-48.3,50.07-48.3-21.96-48.3-50.07,21.69-48.71,48.3-48.71ZM1755.11,229.85c23.33,0,42.16-19.37,42.16-44.48s-18.83-43.11-42.16-43.11-42.16,18.69-42.16,43.11,18.83,44.48,42.16,44.48Z"/>
    <path class="cls-1" d="M1811.46,138.31h27.83v5.46h-11.46l19.24,77.36c.55,2.46.96,5.18.96,5.18h.41s.55-2.73,1.23-5.18l23.74-82.81h6.41l23.74,82.81c.68,2.46,1.23,5.18,1.23,5.18h.41s.41-2.73.96-5.18l19.24-77.36h-11.46v-5.46h27.83v5.46h-10.1l-23.06,90.04h-7.37l-23.47-81.72c-.68-2.46-.96-5.18-.96-5.18h-.41s-.27,2.73-.96,5.18l-23.47,81.72h-7.37l-23.06-90.04h-10.1v-5.46Z"/>
  </g>
  <g>
    <path class="cls-1" d="M374.49,83.46l7.99-.78c.48,2.68,1.46,4.65,2.93,5.91,1.47,1.26,3.46,1.89,5.95,1.89,2.65,0,4.64-.56,5.98-1.68s2.01-2.43,2.01-3.93c0-.96-.28-1.78-.85-2.46-.56-.68-1.55-1.26-2.96-1.76-.96-.33-3.16-.93-6.58-1.78-4.4-1.09-7.49-2.43-9.27-4.03-2.5-2.24-3.75-4.97-3.75-8.19,0-2.07.59-4.01,1.76-5.82,1.17-1.8,2.87-3.18,5.08-4.12,2.21-.94,4.88-1.42,8.01-1.42,5.11,0,8.95,1.12,11.53,3.36,2.58,2.24,3.94,5.23,4.07,8.96l-8.22.36c-.35-2.09-1.11-3.59-2.26-4.51-1.16-.92-2.89-1.37-5.21-1.37s-4.26.49-5.61,1.47c-.87.63-1.3,1.47-1.3,2.53,0,.96.41,1.79,1.22,2.47,1.04.87,3.55,1.78,7.55,2.72,4,.94,6.95,1.92,8.87,2.93s3.41,2.39,4.5,4.14c1.08,1.75,1.62,3.91,1.62,6.48,0,2.33-.65,4.51-1.94,6.55-1.29,2.04-3.13,3.55-5.5,4.54-2.37.99-5.32,1.49-8.85,1.49-5.14,0-9.1-1.19-11.85-3.57s-4.4-5.84-4.94-10.4Z"/>
    <path class="cls-1" d="M447.34,81.74l7.97,2.53c-1.22,4.44-3.25,7.74-6.09,9.89-2.84,2.16-6.44,3.23-10.81,3.23-5.4,0-9.84-1.85-13.32-5.54-3.48-3.69-5.22-8.74-5.22-15.14,0-6.77,1.75-12.03,5.25-15.78s8.1-5.62,13.79-5.62c4.98,0,9.02,1.47,12.13,4.41,1.85,1.74,3.24,4.24,4.16,7.49l-8.13,1.94c-.48-2.11-1.49-3.78-3.01-5-1.53-1.22-3.38-1.83-5.57-1.83-3.02,0-5.46,1.08-7.34,3.25s-2.82,5.67-2.82,10.52c0,5.14.92,8.81,2.78,10.99s4.26,3.28,7.22,3.28c2.18,0,4.06-.69,5.63-2.08,1.57-1.39,2.7-3.57,3.39-6.55Z"/>
    <path class="cls-1" d="M467.51,76.6c0-4.14.62-7.62,1.86-10.44.92-2.07,2.19-3.93,3.79-5.58,1.6-1.65,3.35-2.87,5.26-3.66,2.54-1.07,5.46-1.61,8.77-1.61,6,0,10.79,1.86,14.39,5.58,3.6,3.72,5.4,8.89,5.4,15.52s-1.79,11.71-5.36,15.42-8.35,5.57-14.32,5.57-10.86-1.85-14.43-5.54-5.36-8.78-5.36-15.25ZM475.98,76.33c0,4.61,1.06,8.1,3.19,10.48,2.13,2.38,4.83,3.57,8.1,3.57s5.96-1.18,8.06-3.54c2.1-2.36,3.15-5.9,3.15-10.62s-1.02-8.14-3.07-10.44c-2.04-2.29-4.76-3.44-8.15-3.44s-6.12,1.16-8.19,3.48c-2.07,2.32-3.11,5.82-3.11,10.51Z"/>
    <path class="cls-1" d="M520.16,56.01h8.22v22.04c0,3.5.1,5.76.3,6.8.35,1.67,1.19,3,2.51,4.01s3.13,1.51,5.43,1.51,4.09-.48,5.27-1.43c1.18-.95,1.9-2.12,2.14-3.51.24-1.39.36-3.69.36-6.91v-22.51h8.22v21.37c0,4.88-.22,8.34-.67,10.35-.44,2.02-1.26,3.72-2.46,5.11s-2.79,2.49-4.79,3.32-4.61,1.24-7.83,1.24c-3.89,0-6.83-.45-8.84-1.35s-3.59-2.06-4.76-3.5c-1.17-1.43-1.93-2.94-2.3-4.51-.54-2.33-.81-5.77-.81-10.33v-21.71Z"/>
    <path class="cls-1" d="M577.25,96.7v-33.81h-12.07v-6.88h32.34v6.88h-12.05v33.81h-8.22Z"/>
    <path class="cls-1" d="M609.39,96.7v-40.69h8.22v40.69h-8.22Z"/>
    <path class="cls-1" d="M632.33,96.7v-40.69h7.99l16.65,27.17v-27.17h7.63v40.69h-8.24l-16.4-26.54v26.54h-7.63Z"/>
    <path class="cls-1" d="M699.05,81.74v-6.86h17.71v16.21c-1.72,1.67-4.21,3.13-7.48,4.4-3.27,1.27-6.57,1.9-9.92,1.9-4.26,0-7.97-.89-11.13-2.68s-5.54-4.34-7.13-7.66c-1.59-3.32-2.39-6.93-2.39-10.84,0-4.24.89-8,2.67-11.3s4.38-5.82,7.8-7.58c2.61-1.35,5.86-2.03,9.74-2.03,5.05,0,9,1.06,11.84,3.18,2.84,2.12,4.67,5.05,5.48,8.79l-8.16,1.53c-.57-2-1.65-3.58-3.23-4.73-1.58-1.16-3.56-1.73-5.93-1.73-3.59,0-6.44,1.14-8.56,3.41-2.12,2.28-3.18,5.65-3.18,10.13,0,4.83,1.07,8.45,3.22,10.87,2.15,2.42,4.96,3.62,8.44,3.62,1.72,0,3.45-.34,5.18-1.01,1.73-.67,3.22-1.49,4.46-2.46v-5.16h-9.41Z"/>
    <path class="cls-1" d="M788.36,96.7h-8.94l-3.55-9.24h-16.26l-3.36,9.24h-8.71l15.85-40.69h8.69l16.29,40.69ZM773.23,80.6l-5.61-15.1-5.5,15.1h11.1Z"/>
    <path class="cls-1" d="M799.43,96.7v-40.69h12.3l7.38,27.76,7.3-27.76h12.32v40.69h-7.63v-32.03l-8.08,32.03h-7.91l-8.05-32.03v32.03h-7.63Z"/>
    <path class="cls-1" d="M853.71,96.7v-40.69h30.17v6.88h-21.96v9.02h20.43v6.86h-20.43v11.08h22.73v6.86h-30.95Z"/>
    <path class="cls-1" d="M898.48,96.7v-40.69h17.29c4.35,0,7.51.37,9.48,1.1,1.97.73,3.55,2.03,4.73,3.9,1.18,1.87,1.78,4.01,1.78,6.41,0,3.05-.9,5.58-2.69,7.56-1.79,1.99-4.48,3.24-8.05,3.76,1.78,1.04,3.24,2.17,4.4,3.41,1.16,1.24,2.72,3.44,4.68,6.61l4.97,7.94h-9.83l-5.94-8.85c-2.11-3.16-3.55-5.16-4.33-5.98s-1.6-1.39-2.47-1.69c-.87-.3-2.25-.46-4.14-.46h-1.67v16.99h-8.22ZM906.7,73.22h6.08c3.94,0,6.4-.17,7.38-.5s1.75-.91,2.3-1.72c.56-.81.83-1.83.83-3.05,0-1.37-.37-2.47-1.1-3.32-.73-.84-1.76-1.37-3.09-1.6-.67-.09-2.66-.14-6-.14h-6.41v10.33Z"/>
    <path class="cls-1" d="M946.08,96.7v-40.69h8.22v40.69h-8.22Z"/>
    <path class="cls-1" d="M994.98,81.74l7.97,2.53c-1.22,4.44-3.25,7.74-6.09,9.89-2.84,2.16-6.44,3.23-10.81,3.23-5.4,0-9.84-1.85-13.32-5.54s-5.22-8.74-5.22-15.14c0-6.77,1.75-12.03,5.25-15.78,3.5-3.75,8.09-5.62,13.79-5.62,4.98,0,9.02,1.47,12.13,4.41,1.85,1.74,3.24,4.24,4.16,7.49l-8.13,1.94c-.48-2.11-1.49-3.78-3.01-5-1.53-1.22-3.38-1.83-5.57-1.83-3.02,0-5.46,1.08-7.34,3.25-1.88,2.17-2.82,5.67-2.82,10.52,0,5.14.92,8.81,2.78,10.99s4.26,3.28,7.22,3.28c2.18,0,4.06-.69,5.63-2.08,1.57-1.39,2.7-3.57,3.39-6.55Z"/>
    <path class="cls-1" d="M1053.51,96.7h-8.94l-3.55-9.24h-16.27l-3.36,9.24h-8.72l15.85-40.69h8.69l16.29,40.69ZM1038.38,80.6l-5.61-15.1-5.5,15.1h11.1Z"/>
  </g>
  <g>
    <polygon class="cls-1" points="232.88 196.36 205.19 224.05 277.09 295.96 304.78 268.27 232.88 196.36 232.88 196.36 232.88 196.36"/>
    <path class="cls-1" d="M272.08,206.6c-1.18,2.02-3.51,2.65-5.76,1.9-2.55-1.06-4.9-3.4-5.96-5.96-.75-1.39-.54-3.3.32-4.58,1.06-1.28,2.56-1.49,4.05-1.71,2.66.75,5.43,2.47,6.81,4.9.74,1.59,1.27,3.83.53,5.44h0ZM221.59,178.89l-34.62,34.4c-2.02.97-3.94-.95-4.69-2.56-.1-1.16.65-2.12,1.07-3.19l33.24-33.23c1.06-.44,2.66-.96,3.83-.22,1.28,1.28,2.34,3.2,1.17,4.8h0ZM173.44,205.74c-2.02-2.88-2.44-6.93-4.47-10.02.53-2.02,2.34-3.83,4.47-4.47l7.78,1.17c1.06.86,2.77,1.06,3.09,2.67-1.7,1.48-.11,5-2.66,6.07-2.77,1.28-4.68,6.18-8.2,4.59h0ZM164.71,182.09c-.86-.86-1.39-2.24-.75-3.3,1.7-2.56,4.69-.66,6.82-1.07.85,1.48,3.73,3.3,2.13,5.33,1.49,3.19-2.24,4.79-2.13,7.67-1.91,1.27-3.52-.55-5.33-1.07-1.17-2.45-2.55-5.11-.74-7.56h0ZM160.56,158.76c-.43-1.29.43-1.7.53-3.1,1.49-.85,2.67-2.23,4.36-2.02,2.03,1.17,3.42,1.7,4.27,4.05-.96,1.82-3.3,4.8-5.43,4.8-1.71-.64-2.77-2.14-3.73-3.73h0ZM157.57,122.98c0-1.29-1.38-1.81-2.24-2.67.43-2.34-.1-5.21-2.66-6.7-2.44-.32-1.59-3.94-4.37-3.31-.85-2.56,1.27-4.9-.85-6.82-.11-2.45,2.67-2.23,2.98-4.47.43-.43.75-.96,1.49-.86.32-.74,2.03-1.17,3.09-2.02,2.13.21,1.17,3.31,3.52,3.09,1.59.74.85,1.92.32,2.87.74,1.81,2.77,3.41,2.13,5.54,3.52,1.17.32,4.58,3.3,5.86.64.21,0,.86,0,1.5,1.17,2.44,1.49,4.47-.96,6.5.54,1.38.22,2.98-1.59,3.51-1.6-.96-4.59,1.38-4.16-2.02h0ZM146.6,191.25c-.96,2.44.85,5.75-2.13,7.24-2.67-1.17-7.57.32-7.35-4.15.85-2.13-2.67-3.93-.54-6.06-1.06-1.92,2.13-1.92,1.71-3.63,2.02-.33,4.69-2.78,6.07.1.96-.31,1.59.97,2.02,1.6-.21.64-.65,1.7-.11,2.45,1.17.75,1.17,1.6.32,2.45h0ZM132.54,227.46c-2.56-1.06-5.12,1.28-7.88.43-2.67-3.08-5.97-5.12-5.11-9.59-2.02-1.16-.75-4.36-3.73-4.58.86-1.49-.75-3.51-1.49-5.11-1.92-1.07.1-2.88-1.28-4.27.42-2.34.42-4.68,2.56-6.17,1.49-1.27,3.51-1.38,5.43-.54,2.87,3.1,3.4,6.83,3.51,10.77,3.09.32.53,5.21,4.16,3.72,0,1.92,1.6,1.82,2.88,2.46,2.24,1.39,4.79,2.88,4.47,5.75-1.92,2.13-.75,5.64-3.51,7.13h0ZM108.47,92.4c-1.28,0-2.56,0-3.09-1.17,1.6-2.23-1.71-2.77-.96-5-4.15-1.38,1.92-3.62-.74-5.63.11-2.68,3.09-3.95,5.11-4.69,1.7,1.49,3.94.32,5.64-.54,1.91,2.56,4.26,3.41,7.03,4.27,2.02.31,1.28,3.41,3.62,2.77,1.81.95.43,3.41.11,4.79-.75,2.03-.32,5.01-3.09,6.07-2.13.43-4.05-1.06-5.86.32-2.55-1.28-5.53.21-7.77-1.17h0ZM106.88,137.03c-2.99,2.13-6.08.75-8.84-.95-2.45-1.17-6.07.09-7.03-3.2-.74-2.88.11-5.21.86-7.88h1.49c-.54-1.59-.54-3.73,0-5.53,2.02-2.23,4.26.64,6.39-1.07,1.49,1.92,4.69,2.56,4.37,5.65,2.45.96,3.2,4.26,5.75,5.54-1.17,2.87,1.6,6.5-2.98,7.45h0ZM92.39,168.77c-1.39.74-2.67,2.03-4.48,1.28-2.45-1.61-4.04-3.84-5.64-6.08l-1.17-.73c1.59-1.61.53-3.53.64-5.34,2.13-.85,2.77-4.47,5.33-3.83,1.5-1.29,2.34.43,3.83.21,1.28,2.34,3.52,5.23,1.6,7.99,5.11,1.49-1.38,3.74-.1,6.5h0ZM75.34,110.19c-2.34-.64-4.58-1.59-6.92-1.59-1.71-2.35-5.01-1.6-6.28-4.38-1.6-.1-1.71-1.7-1.92-2.77.53-2.02,1.39-4.15-.64-5.75-2.88-5.21,3.84-7.46,7.35-5.21,2.34,1.7,3.84,4.46,4.15,6.92,2.67,3.73,7.78,1.81,10.33,5.43-.43,1.49-1.17,3.1-1.6,4.58l-4.47,2.77h0ZM76.84,66.52c2.13-2.34,5.22-.1,7.24-2.98,2.56-.22,3.2,2.76,5.97,2.13,1.06.63,2.34,1.49,2.56,2.56-1.07,2.13,1.38,3.31.75,5.22-2.13,3.63-6.82,5.11-7.99,9.04-.85.22-1.81.97-2.55.22-2.88-.95-2.99-4.05-4.69-5.97,1.7-2.97-2.88-4.79-1.07-7.88l-.65.21c-.53-.73.11-1.8.43-2.55h0ZM88.87,51.28c1.81-.11-.1-2.03,1.71-2.12,1.28.63,3.3.32,4.47-.22,1.49-.86,3.09.95,4.58-.53.96,1.17,2.88,1.17,3.94,2.23l.11.54c2.13-1.07,2.34,1.07,3.09,2.67,1.6,1.16-.85,1.91-.53,3.08l-3.72,1.81-.11-.75c-1.17-.1-2.13,1.7-3.29.54-.22-2.34-2.35,0-3.2-1.29-.96,1.17-2.13.22-3.3.32-1.28-2.13-4.37-3.51-3.73-6.28h0ZM129.35,142.68c-.96,3.3,3.41,4.9,2.56,8.09,3.09,1.81,2.76,5.11,5.22,7.13.32,2.24-1.18,4.16-2.99,5.11-1.81.32-3.62,1.49-5.54.86-1.71-2.13-4.9-.63-6.5-3.94-.85-2.78-4.37-4.59-4.9-7.67,1.49-3.63-1.92-7.67,1.59-10.55l4.69-3.83c1.92,1.49,6.82.63,5.86,4.8h0ZM137.55,65.44c7.25.22,12.78,4.7,19.17,6.41,2.02-1.17,2.98,2.56,4.58.32,1.81,1.17-.1,2.88,1.5,4.26.53,1.17-.96,2.66-1.81,3.73-5.32,1.92-12.89,5.43-17.89.86-3.72-.32-5.11-5.54-8.84-6.5-.53-1.6-1.6-3.3-1.38-5.01l4.68-4.05h0ZM172.59,170.38c-.1-2.02,2.02-3.31,2.77-4.69,3.83.21,4.26-5.54,7.99-4.36l3.83-1.28c.74,2.03,1.81,3.3.96,5.64-.85,2.98-4.79,4.8-3.94,8.2-2.45,2.88-6.17,1.71-9.16,1.49,0-2.98-5.54-1.92-2.45-5h0ZM182.28,85.9l.11.31c1.81-3.73,6.82-2.13,10.33-2.67,2.13,2.14,6.07-1.38,6.91,2.89.32,2.02,2.35,3.83.22,5.54-1.7.42-2.13,2.56-3.73,3.1-5.11-.64-10.44,7.24-14.38.74-.63-3.19-1.38-6.92.53-9.9h0ZM186.12,183.48c.75-.75,1.92-1.71,1.07-2.99.96-1.17,2.24-2.02,3.62-1.49-.1,1.38,1.28.86,2.13,1.07,1.07,1.07,2.46,2.67,2.24,4.16-2.35,2.77-4.26,5.54-7.14,7.56-1.07-.21-2.23-.32-2.66-1.6.11-2.23,1.81-4.37.74-6.7h0ZM202.63,113.49c2.13.43,3.09,3.3,3.84,5.32,1.38,1.18,1.49,3.41,2.34,4.91-.11.96-.75,1.81-.53,3.09,2.34,1.28.22,3.84.96,5.65-1.7,1.91-2.55,5.32-5.43,5.64-1.07,2.56-4.36,4.16-6.17,6.17-2.02.11-3.62,2.56-5.97,1.29-1.39-1.39-1.92-2.56-2.24-4.37.43-4.69,5.43-6.08,6.07-10.54,1.6-.96,2.55-2.56,2.66-4.37-2.88-2.03,3.09-5.43-1.49-6.4-.64-2.97-5.11-2.33-4.68-5.96,1.7-1.7,2.87-5.43,6.28-4.37,1.17,2.24,3.94,1.39,4.37,3.94h0ZM210.72,162.7c1.07,2.13,1.18,4.8-.1,6.92-2.34,2.34-5.75,3.2-5.65,6.93l-2.02,1.58c-.75-1.38-.54-3.08-2.35-3.61-.85-2.56-1.59-5.64-4.15-7.14-1.06-1.7-1.6-4.36-.96-5.85,1.49-.64,4.05-2.98,4.79-.32,3.62-2.14,6.6,2.12,10.43,1.49h0ZM211.37,251.54c2.02,1.17,4.69,2.97,5.53,5.32.22,1.7.86,3.63-.21,5.11-1.38,1.81-3.94,2.02-5.85,1.17-2.99-1.06-5.44-4.16-5.97-7.24-.64-3.41,3.51-5.85,6.5-4.36h0ZM52.02,43.4c-.96,1.6-2.88,3.09-4.69,4.26-2.45-.74-4.8-2.02-7.14-3.3-.43-1.92-1.81-3.73-1.81-5.44,3.63-1.7,4.37-6.5,8.95-6.17l3.08.32c-.42,2.34,2.67,2.45,1.49,4.69.11.74.86,1.48-.31,2.02,1.06.43-.32,2.45.43,3.62h0ZM225.54,123.61c-.21-1.92.22-3.83,1.06-5.32,2.13-1.92,4.69-1.71,7.35-1.6,1.49,2.35,4.48,2.77,5.01,5.65l2.02,5.44c-3.84,2.97-.96,8.62-5.64,10.96-4.05,0-5.76,6.62-10.12,4.59-1.38-1.81-4.05-2.56-3.09-5.22l-.85-.43c-.64-5.32,2.45-9.48,4.26-14.06h0ZM285.72,199.56c-1.28-7.02-8.84-14.17-15.56-16.82-5.96-2.35-13.95-.75-18.85,3.3-5.32,2.34-8.95-3.2-12.35-6.61,1.7-1.49,3.09-3.08,3.19-5.34.21-1.91-.53-3.72-2.24-4.58-4.47-1.7-7.77,2.45-10.75,5.01,1.17-1.39.85-3.84.31-5.44-1.27-2.13-3.51-3.08-5.75-3.83-3.2.86-7.03.21-9.16-2.56,1.07-2.77,2.67-5.01,5.55-6.18,7.66-1.92,15.77-1.49,23.11-4.58,1.71-1.92,3.62-4.26,4.9-6.6-2.55-1.5,2.24-2.89.32-4.8-1.06-4.27,4.37-5.01,5.43-8.63.32-1.18-1.81-2.88.11-3.94-.53-2.45.64-5.12,3.09-6.49,2.24-2.68-.43-5.12,1.7-7.88,5.75-5.34-4.05-9.38-5.75-13.64-5-1.59-9.37-4.47-15.12-3.62-1.49-1.91-4.69.64-6.29-1.81.11-2.24-1.59-3.94-3.19-5.54-2.88.53-4.48-2.35-7.03-2.78-3.62-3.83-8.63-5.63-13-8.51.21-4.69-5.11-.43-5.97-4.69-3.4-2.13-4.37-7.35-9.26-6.92-3.3-2.03-7.67,1.06-10.87-2.13-5.1,0-9.15-2.99-13.84-4.27-4.37-1.59-10.66.65-13.32-4.37-5.55-2.13-7.78-7.77-12.67-11.61-1.28-.42-2.67.1-3.73-1.39-3.51.11-6.6-.85-9.91-.11-4.05,4.69-10.55.53-15.23-.54-2.87-1.38-4.69-4.26-7.57-5.64-2.02-1.81-4.9-1.49-7.56-2.02-.1-.96-1.06-.64-1.81-.75-2.45-1.81-6.5-.75-9.48-.53-2.34-1.49-4.58-3.31-6.82-5.12-1.39-2.02-4.47-.85-5.32-3.41-2.56-2.34-5.65-4.58-9.27-5.22-4.8-1.81-8.95,2.56-14.06,1.07-1.7-1.49-3.51-2.44-5.43-3.31-1.81-.1-3.52-1.37-5.44-1.81-5,1.81-8.41-2.87-12.68.1-.95.96-2.55.65-3.51.33-.85.21-1.71,1.06-1.71,1.91,1.71,5.33.53,10.55.96,16.09,2.77,2.97-.84,7.03,1.6,9.91,3.52,2.66.64,7.03,2.55,10.22,3.3,2.46,3.73,6.29,5.54,9.38.22,1.91,2.03,3.08,1.71,5.1,3.84,1.29.74,4.8,1.38,7.35,1.7,1.92,1.92,4.05,2.77,6.18,2.45.11,1.6,3.31,2.66,4.8,2.13,1.49,1.92,4.26,4.26,5.54-.75,4.15,2.66,7.14.75,11.4,2.76,2.77,2.02,6.71,2.13,10.22,0,4.68,6.29,5.23,6.39,9.37,2.98,3.2,2.55,6.61,2.13,10.66,1.27,2.12-.53,6.49,2.56,7.87,1.28,1.29-1.28,2.78.74,3.74.21,1.92.85,3.41,2.55,4.47,2.77,4.26,5.65,7.78,9.69,11.18,5.22,3.1,3.31,9.91,4.05,14.71-2.02,6.92,6.18,10.01,6.82,15.98.64,1.48,2.34,1.91,2.46,3.51,3.29,1.6,2.02,6.5,6.17,7.03,0,1.28,1.18,2.67,0,3.84-.32,1.59,1.6,2.87,2.77,4.26-.21,2.98,3.2,4.47,4.47,7.04.54,1.16-.85,3.19,1.07,4.05.11,5.21,7.03,7.03,7.45,12.14-.75,2.02.86,3.84,1.92,5.54.22,1.92,2.66,3.08,2.34,5.32.43,1.92,2.45,3.09,4.05,3.84,1.49,4.46,6.5,4.15,8.84,7.56,1.91,1.07,3.83-.22,5.43-1.17,3.62,0,5.54-4.05,8.84-5,4.47-3.21,10.12-3.74,14.91-6.4,5.01-4.37,6.29-11.61,8.63-16.51-.11-2.87-1.17-5.43-2.56-8.1.43-2.12-.74-4.57-.1-6.7,1.39-3.94,6.61-1.71,9.48-1.81.85.42,1.8,1.6,2.55,1.07,2.03.53.32,2.87.64,4.47.64,2.14,1.6,4.16,3.51,5.65,1.6.74,4.69.63,5.87.11-2.34,2.77-6.83,5.1-6.08,9.26.11,1.61,1.28,2.99,2.66,3.51,3.62,1.28,6.07-1.6,8.73-3.62,2.56,3.62,8.21,5.86,6.71,10.97-4.26,5.11-5.85,13.1-3.94,19.49,2.46,6.29,8.74,13.63,15.66,15.87,10.87,2.13,22.9-.75,31.11-10.01l-42.82-43.25,36.96-36.96,43.47,42.82c5.54-4.69,8.3-10.87,10.23-17.04.42-4.26.85-8.51.11-12.67h0Z"/>
    <polygon class="cls-1" points="326.72 265.82 326.72 268.19 322.72 268.19 322.72 279.2 319.9 279.2 319.9 268.19 315.88 268.19 315.88 265.82 326.72 265.82 326.72 265.82"/>
    <path class="cls-1" d="M337.24,265.82h4.02v13.38h-2.6v-9.05c0-.26,0-.62,0-1.09,0-.47.01-.83.01-1.09l-2.54,11.23h-2.71l-2.52-11.23c0,.25,0,.62,0,1.09,0,.47.01.84.01,1.09v9.05h-2.61v-13.38h4.07l2.44,10.52,2.42-10.52h0Z"/>
  </g>
  <path class="cls-1" d="M1064.21,53.53c1.88,0,3.69.47,5.42,1.41,1.73.94,3.09,2.29,4.08,4.05.99,1.76,1.48,3.6,1.48,5.52s-.49,3.74-1.46,5.47c-.97,1.73-2.32,3.09-4.06,4.06-1.73.97-3.56,1.46-5.47,1.46s-3.73-.48-5.47-1.46c-1.73-.97-3.09-2.32-4.06-4.06-.97-1.73-1.46-3.56-1.46-5.47s.49-3.76,1.48-5.52c.99-1.76,2.35-3.11,4.08-4.05,1.73-.94,3.54-1.41,5.42-1.41ZM1064.22,55.68c-1.51,0-2.96.38-4.34,1.13s-2.48,1.84-3.28,3.25c-.8,1.42-1.2,2.9-1.2,4.44s.39,3.01,1.17,4.4c.78,1.4,1.87,2.49,3.26,3.27,1.4.78,2.86,1.18,4.39,1.18s3-.39,4.39-1.18c1.39-.78,2.48-1.87,3.26-3.27.78-1.4,1.18-2.86,1.18-4.4s-.4-3.03-1.2-4.44c-.8-1.41-1.89-2.5-3.28-3.25s-2.84-1.13-4.35-1.13ZM1059.24,70.39v-11.66h2.37c2.22,0,3.46,0,3.73.03.78.07,1.39.22,1.83.47.44.24.8.62,1.09,1.12.29.5.44,1.06.44,1.67,0,.84-.28,1.56-.82,2.16-.55.6-1.32.97-2.32,1.11.35.13.63.28.82.44.19.16.45.46.79.9.09.12.37.59.86,1.42l1.38,2.35h-2.92l-.97-1.89c-.66-1.27-1.2-2.07-1.63-2.4-.43-.33-.97-.49-1.63-.49h-.62v4.79h-2.37ZM1061.61,63.77h.96c1.37,0,2.21-.05,2.54-.16.33-.1.59-.29.78-.55.19-.26.29-.56.29-.9s-.09-.61-.28-.87c-.19-.25-.45-.44-.79-.54-.34-.11-1.19-.17-2.54-.17h-.96v3.18Z"/>
</svg>